<svg data-v-423bf9ae="" xmlns="http://www.w3.org/2000/svg" viewBox="0 0 581 90" class="iconLeft"><!----><!----><!----><g data-v-423bf9ae="" id="95356fac-4f4d-4247-85d4-bffab33ba9b7" fill="#D72C6B" transform="matrix(5.934717742604922,0,0,5.934717742604922,106.49851156688416,-11.172104339321642)"><path d="M4.05 14.52C6.15 14.52 7.41 13.37 7.41 11.58C7.41 10.12 6.58 9.28 4.68 8.85L3.88 8.67C2.65 8.39 2.04 7.97 2.04 7.04C2.04 5.99 2.81 5.45 4.06 5.45C5.19 5.45 5.94 5.91 6.47 6.65L7.35 6.01C6.62 4.97 5.59 4.41 4.12 4.41C2.20 4.41 0.88 5.35 0.88 7.08C0.88 8.58 1.86 9.37 3.64 9.77L4.44 9.95C5.73 10.25 6.24 10.71 6.24 11.63C6.24 12.75 5.49 13.48 4.09 13.48C2.95 13.48 2.14 12.99 1.46 12.08L0.59 12.81C1.37 13.87 2.48 14.52 4.05 14.52ZM12.89 14.35L12.89 13.37L11.52 13.37L11.52 5.56L12.89 5.56L12.89 4.58L8.97 4.58L8.97 5.56L10.35 5.56L10.35 13.37L8.97 13.37L8.97 14.35ZM15.04 14.35L16.18 14.35L16.18 6.12L16.25 6.12L17.08 7.76L19.42 12.01L21.76 7.76L22.58 6.12L22.65 6.12L22.65 14.35L23.80 14.35L23.80 4.58L22.29 4.58L19.47 9.84L19.40 9.84L16.60 4.58L15.04 4.58ZM27.58 14.35L27.58 10.18L30.30 10.18C32.05 10.18 33.03 9.10 33.03 7.38C33.03 5.66 32.05 4.58 30.30 4.58L26.40 4.58L26.40 14.35ZM27.58 5.61L30.30 5.61C31.22 5.61 31.77 6.12 31.77 7.01L31.77 7.74C31.77 8.64 31.22 9.14 30.30 9.14L27.58 9.14ZM40.22 14.35L40.22 13.31L36.06 13.31L36.06 4.58L34.89 4.58L34.89 14.35ZM47.87 14.35L47.87 13.31L43.08 13.31L43.08 9.93L47.59 9.93L47.59 8.89L43.08 8.89L43.08 5.61L47.87 5.61L47.87 4.58L41.90 4.58L41.90 14.35ZM56.81 14.52C58.44 14.52 59.63 13.66 60.24 12.29L59.30 11.70C58.91 12.77 58.06 13.47 56.81 13.47C55.13 13.47 54.14 12.25 54.14 10.25L54.14 8.79C54.14 6.79 55.13 5.46 56.81 5.46C58.02 5.46 58.83 6.12 59.22 7.13L60.17 6.55C59.56 5.19 58.44 4.41 56.81 4.41C54.35 4.41 52.88 6.26 52.88 9.52C52.88 12.78 54.35 14.52 56.81 14.52ZM63.24 10.15L65.52 10.15L67.63 14.35L68.96 14.35L66.72 10.04C68.00 9.74 68.68 8.78 68.68 7.35C68.68 5.57 67.66 4.58 65.95 4.58L62.06 4.58L62.06 14.35L63.24 14.35ZM63.24 9.14L63.24 5.61L65.95 5.61C66.88 5.61 67.42 6.12 67.42 7.01L67.42 7.74C67.42 8.64 66.88 9.14 65.95 9.14ZM71.02 14.35L72.17 14.35L72.17 6.12L72.24 6.12L73.07 7.76L75.40 12.01L77.74 7.76L78.57 6.12L78.64 6.12L78.64 14.35L79.79 14.35L79.79 4.58L78.27 4.58L75.46 9.84L75.39 9.84L72.59 4.58L71.02 4.58Z"></path></g><!----><g data-v-423bf9ae="" id="1d6122db-96bc-464d-ba5c-646a12bbd5f4" transform="matrix(2.8125,0,0,2.8125,0,0)" stroke="none" fill="#D72C6B"><path d="M15.965 16.258l.707-.707 10.39 10.39-.707.707z"></path><path d="M4.935 26.357L26.018 5.274l.707.707L5.642 27.065z"></path><path d="M31 1v4.194h-4.194V1H31m1-1h-6.194v6.194H32V0zM31 26.806V31h-4.194v-4.194H31m1-1h-6.194V32H32v-6.194zM5.194 26.806V31H1v-4.194h4.194m1-1H0V32h6.194v-6.194z"></path></g><!----></svg>